<mxfile host="app.diagrams.net" modified="2024-04-21T07:29:39.873Z" agent="Mozilla/5.0 (Windows NT 10.0; Win64; x64) AppleWebKit/537.36 (KHTML, like Gecko) Chrome/124.0.0.0 Safari/537.36" etag="cajCWwHwwT3yVCV7W_t9" version="24.2.7" type="device">
  <diagram name="Page-1" id="AYVPsN0p-ywFNYYopkJ-">
    <mxGraphModel dx="1434" dy="780" grid="1" gridSize="10" guides="1" tooltips="1" connect="1" arrows="1" fold="1" page="1" pageScale="1" pageWidth="827" pageHeight="1169" math="0" shadow="0">
      <root>
        <mxCell id="0" />
        <mxCell id="1" parent="0" />
        <mxCell id="x-FsalAor3PQe2aUWA2_-1" value="" style="image;aspect=fixed;html=1;points=[];align=center;fontSize=12;image=img/lib/azure2/databases/Data_Factory.svg;" vertex="1" parent="1">
          <mxGeometry x="414" y="60" width="40" height="40" as="geometry" />
        </mxCell>
        <mxCell id="x-FsalAor3PQe2aUWA2_-11" style="edgeStyle=orthogonalEdgeStyle;rounded=0;orthogonalLoop=1;jettySize=auto;html=1;entryX=0;entryY=0.5;entryDx=0;entryDy=0;" edge="1" parent="1" source="x-FsalAor3PQe2aUWA2_-2" target="x-FsalAor3PQe2aUWA2_-5">
          <mxGeometry relative="1" as="geometry" />
        </mxCell>
        <mxCell id="x-FsalAor3PQe2aUWA2_-2" value="" style="image;aspect=fixed;html=1;points=[];align=center;fontSize=12;image=img/lib/azure2/storage/Storage_Accounts.svg;" vertex="1" parent="1">
          <mxGeometry x="40" y="190" width="40" height="32" as="geometry" />
        </mxCell>
        <mxCell id="x-FsalAor3PQe2aUWA2_-3" value="" style="image;sketch=0;aspect=fixed;html=1;points=[];align=center;fontSize=12;image=img/lib/mscae/Data_Lake.svg;" vertex="1" parent="1">
          <mxGeometry x="930" y="180" width="40" height="52.63" as="geometry" />
        </mxCell>
        <mxCell id="x-FsalAor3PQe2aUWA2_-4" value="" style="image;aspect=fixed;html=1;points=[];align=center;fontSize=12;image=img/lib/azure2/security/Key_Vaults.svg;" vertex="1" parent="1">
          <mxGeometry x="166" y="250" width="40" height="40" as="geometry" />
        </mxCell>
        <mxCell id="x-FsalAor3PQe2aUWA2_-12" style="edgeStyle=orthogonalEdgeStyle;rounded=0;orthogonalLoop=1;jettySize=auto;html=1;entryX=0;entryY=0.5;entryDx=0;entryDy=0;" edge="1" parent="1" source="x-FsalAor3PQe2aUWA2_-5" target="x-FsalAor3PQe2aUWA2_-6">
          <mxGeometry relative="1" as="geometry" />
        </mxCell>
        <mxCell id="x-FsalAor3PQe2aUWA2_-5" value="Linked&amp;nbsp; service" style="rounded=1;whiteSpace=wrap;html=1;" vertex="1" parent="1">
          <mxGeometry x="140" y="176" width="120" height="60" as="geometry" />
        </mxCell>
        <mxCell id="x-FsalAor3PQe2aUWA2_-13" style="edgeStyle=orthogonalEdgeStyle;rounded=0;orthogonalLoop=1;jettySize=auto;html=1;exitX=1;exitY=0.5;exitDx=0;exitDy=0;entryX=0;entryY=0.5;entryDx=0;entryDy=0;" edge="1" parent="1" source="x-FsalAor3PQe2aUWA2_-6" target="x-FsalAor3PQe2aUWA2_-7">
          <mxGeometry relative="1" as="geometry" />
        </mxCell>
        <mxCell id="x-FsalAor3PQe2aUWA2_-6" value="dataset" style="rounded=1;whiteSpace=wrap;html=1;" vertex="1" parent="1">
          <mxGeometry x="294" y="176" width="120" height="60" as="geometry" />
        </mxCell>
        <mxCell id="x-FsalAor3PQe2aUWA2_-15" value="" style="edgeStyle=orthogonalEdgeStyle;rounded=0;orthogonalLoop=1;jettySize=auto;html=1;" edge="1" parent="1" source="x-FsalAor3PQe2aUWA2_-7" target="x-FsalAor3PQe2aUWA2_-8">
          <mxGeometry relative="1" as="geometry" />
        </mxCell>
        <mxCell id="x-FsalAor3PQe2aUWA2_-7" value="Copy Activity" style="rounded=1;whiteSpace=wrap;html=1;" vertex="1" parent="1">
          <mxGeometry x="440" y="176" width="120" height="60" as="geometry" />
        </mxCell>
        <mxCell id="x-FsalAor3PQe2aUWA2_-16" value="" style="edgeStyle=orthogonalEdgeStyle;rounded=0;orthogonalLoop=1;jettySize=auto;html=1;" edge="1" parent="1" source="x-FsalAor3PQe2aUWA2_-8" target="x-FsalAor3PQe2aUWA2_-9">
          <mxGeometry relative="1" as="geometry" />
        </mxCell>
        <mxCell id="x-FsalAor3PQe2aUWA2_-8" value="dataset" style="rounded=1;whiteSpace=wrap;html=1;" vertex="1" parent="1">
          <mxGeometry x="590" y="176" width="120" height="60" as="geometry" />
        </mxCell>
        <mxCell id="x-FsalAor3PQe2aUWA2_-17" style="edgeStyle=orthogonalEdgeStyle;rounded=0;orthogonalLoop=1;jettySize=auto;html=1;" edge="1" parent="1" source="x-FsalAor3PQe2aUWA2_-9" target="x-FsalAor3PQe2aUWA2_-3">
          <mxGeometry relative="1" as="geometry" />
        </mxCell>
        <mxCell id="x-FsalAor3PQe2aUWA2_-9" value="Linked&amp;nbsp; service" style="rounded=1;whiteSpace=wrap;html=1;" vertex="1" parent="1">
          <mxGeometry x="740" y="176" width="120" height="60" as="geometry" />
        </mxCell>
        <mxCell id="x-FsalAor3PQe2aUWA2_-10" value="" style="endArrow=classic;startArrow=classic;html=1;rounded=0;strokeWidth=2;" edge="1" parent="1">
          <mxGeometry width="50" height="50" relative="1" as="geometry">
            <mxPoint x="130" y="120" as="sourcePoint" />
            <mxPoint x="850" y="120" as="targetPoint" />
          </mxGeometry>
        </mxCell>
        <mxCell id="x-FsalAor3PQe2aUWA2_-18" value="" style="verticalLabelPosition=bottom;html=1;verticalAlign=top;align=center;strokeColor=none;fillColor=#00BEF2;shape=mxgraph.azure.file_2;pointerEvents=1;" vertex="1" parent="1">
          <mxGeometry x="41" y="350" width="40" height="50" as="geometry" />
        </mxCell>
        <mxCell id="x-FsalAor3PQe2aUWA2_-19" style="edgeStyle=orthogonalEdgeStyle;rounded=0;orthogonalLoop=1;jettySize=auto;html=1;entryX=0.508;entryY=1.019;entryDx=0;entryDy=0;entryPerimeter=0;" edge="1" parent="1" source="x-FsalAor3PQe2aUWA2_-18" target="x-FsalAor3PQe2aUWA2_-2">
          <mxGeometry relative="1" as="geometry" />
        </mxCell>
        <mxCell id="x-FsalAor3PQe2aUWA2_-20" value="" style="verticalLabelPosition=bottom;html=1;verticalAlign=top;align=center;strokeColor=none;fillColor=#00BEF2;shape=mxgraph.azure.file_2;pointerEvents=1;" vertex="1" parent="1">
          <mxGeometry x="930" y="250" width="40" height="50" as="geometry" />
        </mxCell>
      </root>
    </mxGraphModel>
  </diagram>
</mxfile>
